<svg xmlns="http://www.w3.org/2000/svg" fill="none" viewBox="113.74 4.68 193.31 239.53">
  <style>
    path {
      fill: #FFF;
    }

    @media (prefers-color-scheme: light) {
      path {
        fill: black;
      }
    }
  </style>
	<path d="M216.198 5.179 C 215.984 5.408,215.810 5.791,215.810 6.030 C 215.810 7.515,212.183 11.409,208.238 14.160 C 207.688 14.543,206.810 15.157,206.288 15.524 C 205.765 15.890,205.301 16.190,205.256 16.190 C 205.178 16.190,203.391 17.345,201.089 18.883 C 200.484 19.288,199.943 19.619,199.887 19.619 C 199.832 19.619,199.394 19.919,198.914 20.286 C 198.043 20.950,197.714 21.091,197.714 20.798 C 197.714 20.273,201.472 16.952,202.066 16.952 C 202.741 16.952,205.986 13.896,206.516 12.762 C 207.042 11.635,207.112 9.126,206.631 8.645 C 206.173 8.186,205.785 8.433,205.651 9.269 C 205.366 11.038,203.502 13.517,202.000 14.126 C 200.938 14.557,198.394 16.708,195.905 19.282 C 192.737 22.556,192.381 22.963,191.775 24.003 C 191.499 24.477,190.952 25.162,190.559 25.527 C 189.064 26.915,188.802 27.252,188.677 27.949 C 188.402 29.489,187.014 32.498,186.282 33.143 C 185.850 33.523,185.296 34.872,185.285 35.568 C 185.254 37.640,186.934 37.791,189.021 35.903 C 189.843 35.160,190.261 35.089,191.056 35.559 C 191.995 36.114,193.000 35.345,195.238 32.360 C 197.102 29.874,198.102 29.423,199.624 30.384 C 202.072 31.930,201.975 33.457,199.269 35.965 C 198.780 36.418,197.952 37.192,197.429 37.686 C 196.129 38.912,193.713 40.762,193.412 40.762 C 193.036 40.762,190.667 42.819,190.667 43.146 C 190.667 43.272,190.143 43.858,189.503 44.449 C 188.610 45.275,188.374 45.601,188.487 45.857 C 188.799 46.567,188.796 47.607,188.481 48.228 C 187.522 50.117,187.085 51.760,187.354 52.461 C 187.490 52.815,188.392 52.865,188.721 52.537 C 189.110 52.147,189.236 52.548,189.304 54.388 C 189.374 56.305,189.480 56.524,190.758 57.404 C 191.043 57.600,191.509 58.128,191.794 58.578 C 192.511 59.708,193.286 60.309,194.232 60.468 C 195.145 60.621,198.881 62.451,198.998 62.803 C 199.040 62.930,198.876 63.072,198.633 63.118 C 198.389 63.165,197.719 63.306,197.143 63.431 C 195.524 63.784,192.226 64.159,188.667 64.395 C 183.681 64.725,182.446 65.333,181.539 67.902 C 181.031 69.341,181.066 70.517,181.641 71.305 C 182.279 72.180,183.238 71.659,183.238 70.438 C 183.238 70.055,183.523 69.628,184.290 68.861 C 185.760 67.391,185.863 67.437,185.842 69.571 C 185.813 72.604,188.021 75.488,188.613 73.190 C 188.807 72.440,189.239 72.390,190.667 72.952 C 192.262 73.581,193.333 73.187,193.333 71.973 C 193.333 71.328,191.631 69.915,190.835 69.900 C 190.332 69.890,189.303 68.873,189.438 68.520 C 189.607 68.080,191.313 67.238,192.036 67.238 C 192.353 67.238,193.138 67.095,193.782 66.920 C 195.978 66.324,201.651 66.439,203.429 67.115 C 206.279 68.200,206.960 67.609,206.354 64.578 C 206.211 63.863,203.592 61.149,202.026 60.095 C 201.488 59.732,200.757 59.177,200.403 58.861 C 200.048 58.544,199.684 58.286,199.593 58.286 C 199.503 58.286,199.429 58.157,199.429 58.000 C 199.429 57.624,200.259 57.624,200.571 58.000 C 200.702 58.157,200.916 58.286,201.047 58.286 C 201.178 58.286,201.671 58.456,202.142 58.665 C 202.808 58.960,203.619 59.072,205.783 59.171 C 209.289 59.330,209.714 59.520,209.714 60.925 C 209.714 62.838,211.727 67.680,212.952 68.713 C 213.328 69.030,215.027 69.905,215.266 69.905 C 215.588 69.905,217.576 70.868,217.471 70.973 C 217.355 71.090,215.564 71.563,214.190 71.841 C 211.229 72.439,210.340 72.751,209.500 73.483 C 208.249 74.575,207.347 74.666,197.702 74.676 C 187.347 74.686,182.722 74.956,179.905 75.714 C 179.381 75.855,178.547 76.025,178.052 76.091 C 177.557 76.158,177.108 76.284,177.054 76.371 C 177.000 76.458,176.719 76.587,176.430 76.657 C 176.141 76.727,175.519 76.959,175.048 77.172 C 174.576 77.386,173.933 77.670,173.619 77.803 C 173.305 77.936,172.405 78.359,171.619 78.742 C 170.833 79.125,170.090 79.436,169.967 79.433 C 169.844 79.431,169.338 79.738,168.842 80.116 C 168.347 80.495,167.489 81.094,166.936 81.448 C 163.588 83.589,160.481 88.760,159.993 93.002 C 159.385 98.290,159.914 102.350,161.512 104.667 C 161.873 105.190,162.410 105.975,162.704 106.409 C 162.998 106.844,163.560 107.473,163.953 107.808 C 164.345 108.142,164.881 108.603,165.143 108.832 C 166.004 109.585,168.132 110.514,169.810 110.871 C 177.771 112.562,185.335 107.747,185.838 100.667 C 185.948 99.119,185.260 95.470,184.766 94.975 C 184.659 94.868,184.571 94.664,184.571 94.520 C 184.571 93.293,181.845 90.851,179.614 90.078 C 175.642 88.704,170.582 93.527,172.169 97.175 C 173.549 100.348,178.846 100.457,180.763 97.351 C 181.340 96.417,181.627 96.372,181.790 97.188 C 182.227 99.371,180.939 102.960,179.193 104.429 C 173.171 109.495,164.952 105.034,164.952 96.698 C 164.952 91.980,167.409 88.915,173.858 85.589 L 176.286 84.336 179.048 84.120 C 184.276 83.712,225.617 84.110,225.909 84.571 C 226.023 84.751,226.074 104.651,226.045 138.000 L 226.000 191.143 225.172 192.857 C 221.783 199.877,220.885 201.193,217.852 203.582 C 215.384 205.526,214.656 206.227,214.778 206.544 C 214.896 206.853,216.728 206.617,217.507 206.193 C 217.778 206.045,218.814 205.530,219.810 205.047 C 222.376 203.801,222.414 203.777,224.049 202.276 C 226.399 200.119,230.058 194.467,230.892 191.704 C 231.084 191.068,233.087 187.810,233.286 187.810 C 233.604 187.810,233.588 188.601,233.254 189.374 C 232.768 190.501,232.191 192.492,232.185 193.061 C 232.176 193.833,230.996 196.064,229.671 197.810 C 228.305 199.611,227.791 200.242,227.060 201.017 C 226.075 202.061,223.947 203.810,223.662 203.810 C 223.486 203.810,222.095 205.236,222.095 205.416 C 222.095 205.462,222.360 205.924,222.683 206.444 L 223.271 207.390 223.186 211.552 C 223.044 218.544,222.278 223.269,220.519 228.000 C 220.266 228.681,219.999 229.838,219.926 230.571 C 219.713 232.723,218.607 235.959,217.109 238.819 C 216.660 239.676,216.378 240.479,216.373 240.914 C 216.365 241.602,216.196 242.598,215.907 243.677 L 215.763 244.210 216.501 243.714 C 217.478 243.057,218.856 241.572,218.860 241.174 C 218.866 240.525,219.520 238.938,221.426 234.952 C 221.877 234.010,222.515 232.638,222.844 231.905 C 223.172 231.171,223.524 230.443,223.626 230.286 C 223.727 230.129,223.892 229.811,223.992 229.581 C 224.092 229.350,224.412 228.793,224.702 228.343 C 225.466 227.159,225.670 226.819,225.940 226.286 C 226.073 226.024,226.478 225.381,226.841 224.857 C 227.204 224.333,227.848 223.390,228.274 222.762 C 228.699 222.133,229.133 221.515,229.238 221.388 C 229.561 220.995,229.780 220.707,230.652 219.524 C 231.116 218.895,232.062 217.738,232.755 216.952 C 234.150 215.370,234.809 214.560,235.238 213.898 C 235.768 213.082,236.804 212.000,237.057 212.000 C 237.997 212.000,238.185 211.038,238.286 205.714 C 238.401 199.613,238.479 199.396,241.209 197.561 L 241.941 197.068 241.813 195.876 C 241.687 194.695,241.981 193.347,242.762 191.524 C 243.478 189.852,243.861 189.000,244.090 188.571 C 244.229 188.310,244.555 187.697,244.813 187.210 C 245.071 186.723,245.469 186.124,245.697 185.879 C 246.323 185.208,246.986 183.985,247.130 183.238 C 247.201 182.871,247.377 182.271,247.521 181.905 C 247.666 181.538,248.013 180.644,248.293 179.918 C 248.572 179.192,248.866 178.464,248.944 178.299 C 249.023 178.135,249.221 177.700,249.384 177.333 C 249.547 176.967,249.911 176.152,250.191 175.524 C 251.064 173.567,252.062 171.643,253.763 168.635 C 255.433 165.682,256.571 163.296,256.571 162.747 C 256.571 162.590,256.838 161.885,257.164 161.183 C 257.490 160.480,257.970 159.433,258.230 158.857 C 258.490 158.281,259.927 155.324,261.423 152.286 C 262.919 149.248,264.333 146.333,264.566 145.810 C 264.799 145.286,265.122 144.557,265.284 144.190 C 265.447 143.824,265.644 143.389,265.723 143.225 C 266.227 142.167,266.833 140.350,266.918 139.639 C 266.974 139.179,267.094 138.750,267.186 138.687 C 267.647 138.369,268.190 137.125,268.190 136.388 C 268.190 134.819,266.944 133.953,266.184 134.994 C 265.442 136.009,265.311 133.404,266.029 131.905 C 266.485 130.953,267.680 131.020,269.744 132.113 C 270.022 132.260,270.365 132.384,270.506 132.387 C 270.647 132.391,271.105 132.559,271.524 132.762 C 271.943 132.964,272.440 133.133,272.629 133.136 C 272.817 133.140,273.208 133.265,273.497 133.414 C 277.383 135.424,283.223 134.243,284.144 131.261 C 284.602 129.777,284.551 127.950,284.020 126.807 C 283.573 125.843,282.275 124.382,281.865 124.380 C 281.730 124.379,281.366 124.247,281.056 124.085 C 277.766 122.369,276.617 125.419,279.278 128.807 C 281.573 131.728,275.283 131.310,271.036 128.259 C 270.546 127.907,270.059 127.619,269.953 127.619 C 269.847 127.619,269.654 127.490,269.524 127.333 C 269.393 127.176,269.171 127.048,269.030 127.048 C 268.772 127.048,266.539 125.589,266.364 125.306 C 266.172 124.995,267.248 124.903,267.579 125.202 C 267.759 125.365,268.120 125.593,268.381 125.711 C 268.643 125.829,269.243 126.129,269.714 126.380 C 271.282 127.212,272.095 126.641,272.299 124.567 C 272.372 123.825,272.544 123.149,272.691 123.027 C 272.835 122.908,272.952 122.743,272.952 122.660 C 272.952 122.577,273.237 122.078,273.584 121.551 C 274.588 120.026,278.476 112.077,278.476 111.549 C 278.476 111.418,278.602 111.145,278.756 110.941 C 278.910 110.738,279.038 110.416,279.042 110.226 C 279.053 109.587,280.378 106.595,281.170 105.419 C 281.891 104.350,282.477 102.788,282.473 101.945 C 282.466 99.991,284.641 94.614,288.000 88.286 C 288.985 86.431,289.462 85.336,291.113 81.148 C 292.248 78.268,293.819 75.696,295.424 74.089 C 296.308 73.203,300.540 70.476,301.030 70.476 C 301.246 70.476,303.288 68.915,303.753 68.394 C 305.020 66.976,305.618 65.747,306.590 62.571 C 307.000 61.232,307.202 56.272,306.889 55.219 C 306.413 53.615,305.302 51.158,304.272 49.429 C 304.022 49.010,303.751 48.536,303.671 48.377 C 303.386 47.816,302.011 45.808,301.816 45.670 C 301.505 45.449,300.788 45.499,299.636 45.823 C 297.355 46.463,295.881 46.915,295.333 47.141 C 295.018 47.271,294.479 47.440,294.135 47.515 C 293.503 47.654,291.231 48.782,289.934 49.601 C 288.330 50.613,286.455 52.795,285.629 54.610 C 285.352 55.217,285.001 55.942,284.849 56.220 C 284.696 56.498,284.571 56.841,284.570 56.982 C 284.570 57.123,284.446 57.474,284.295 57.763 C 283.405 59.470,283.071 62.147,283.493 64.190 C 284.654 69.812,284.603 72.770,283.296 75.619 C 281.510 79.513,279.017 84.568,278.824 84.687 C 278.745 84.736,278.497 84.592,278.272 84.368 C 277.317 83.412,278.334 79.584,280.162 77.256 C 282.009 74.903,282.610 73.093,281.366 73.632 C 279.176 74.582,271.055 75.085,269.221 74.384 C 268.254 74.015,267.747 73.239,267.541 71.810 C 267.393 70.789,266.916 69.082,266.555 68.286 C 266.412 67.971,266.204 67.500,266.092 67.238 C 265.338 65.475,263.331 63.082,261.048 61.223 C 259.540 59.996,255.415 57.714,254.704 57.714 C 254.521 57.714,254.201 57.597,253.995 57.454 C 253.491 57.106,251.842 56.603,250.095 56.265 C 249.310 56.113,248.281 55.911,247.810 55.815 C 246.476 55.545,242.875 55.586,241.707 55.885 C 241.135 56.031,240.281 56.209,239.810 56.281 C 238.968 56.409,237.177 56.925,235.758 57.449 C 233.811 58.168,233.154 57.765,233.701 56.186 C 233.918 55.559,234.095 54.878,234.095 54.672 C 234.095 53.724,236.794 51.853,238.552 51.583 C 241.680 51.102,254.865 51.340,257.048 51.918 C 257.257 51.973,257.600 51.891,257.810 51.735 C 258.305 51.367,258.028 51.087,256.571 50.483 C 254.799 49.747,254.417 49.393,254.545 48.602 C 254.867 46.617,261.182 40.370,263.184 40.055 C 263.581 39.993,264.109 39.783,264.359 39.590 C 264.609 39.396,264.887 39.238,264.978 39.238 C 265.069 39.238,265.308 39.088,265.510 38.905 C 266.413 38.086,267.131 37.700,268.857 37.109 C 274.543 35.160,290.994 35.058,294.952 36.948 C 296.428 37.652,298.529 38.091,298.746 37.740 C 298.864 37.550,297.450 36.212,296.754 35.855 C 296.496 35.723,296.029 35.446,295.714 35.239 C 295.073 34.817,294.347 34.476,294.089 34.476 C 293.995 34.476,293.636 34.357,293.292 34.211 C 289.598 32.644,267.082 32.302,259.714 33.701 C 259.190 33.801,258.113 33.887,257.320 33.893 C 256.527 33.900,255.456 34.027,254.939 34.177 C 253.679 34.543,251.963 34.718,251.657 34.513 C 251.442 34.369,252.434 32.291,252.947 31.810 C 253.003 31.757,253.306 31.331,253.620 30.862 C 254.404 29.690,258.021 26.118,259.266 25.287 C 259.827 24.912,260.475 24.426,260.706 24.207 C 260.938 23.989,261.184 23.810,261.254 23.810 C 261.324 23.810,261.992 23.516,262.738 23.157 C 264.983 22.077,265.792 21.777,269.429 20.675 C 270.371 20.389,271.486 20.045,271.905 19.909 C 272.324 19.774,273.267 19.483,274.000 19.263 C 274.733 19.044,276.148 18.602,277.143 18.281 C 278.258 17.922,279.574 17.654,280.571 17.581 C 282.152 17.467,283.028 17.133,283.042 16.641 C 283.056 16.122,279.658 16.022,276.857 16.460 C 275.914 16.607,274.460 16.787,273.626 16.860 C 272.792 16.933,271.904 17.071,271.651 17.167 C 271.399 17.263,270.582 17.427,269.834 17.532 C 269.087 17.637,268.133 17.840,267.714 17.983 C 267.295 18.126,266.395 18.336,265.714 18.450 C 263.348 18.843,258.880 19.950,257.048 20.597 C 256.733 20.708,256.111 20.874,255.664 20.965 C 255.217 21.057,254.693 21.218,254.498 21.322 C 254.304 21.426,253.812 21.594,253.406 21.696 C 252.999 21.798,251.552 22.261,250.190 22.725 C 246.416 24.011,245.856 24.198,245.238 24.380 C 244.924 24.472,244.067 24.774,243.333 25.051 C 242.600 25.328,241.661 25.637,241.246 25.739 C 240.831 25.841,240.399 26.001,240.286 26.095 C 240.173 26.189,239.741 26.349,239.326 26.451 C 238.911 26.553,237.971 26.865,237.238 27.145 C 234.804 28.072,234.230 27.968,235.524 26.832 C 235.890 26.510,236.190 26.146,236.190 26.024 C 236.190 25.243,237.184 24.408,239.368 23.352 C 240.606 22.754,241.862 22.141,242.158 21.989 C 242.455 21.838,242.798 21.711,242.920 21.708 C 243.043 21.704,243.486 21.536,243.905 21.333 C 244.324 21.131,244.763 20.962,244.881 20.959 C 245.465 20.941,250.942 18.258,251.501 17.716 C 251.965 17.266,251.790 16.471,251.193 16.311 C 250.323 16.078,249.610 16.221,246.952 17.163 C 246.638 17.274,245.995 17.481,245.524 17.623 C 244.586 17.904,243.170 18.395,242.571 18.646 C 241.644 19.035,239.990 19.621,238.762 19.996 C 238.029 20.219,237.165 20.483,236.844 20.582 C 235.599 20.965,235.245 20.843,235.291 20.048 C 235.366 18.783,233.421 19.110,230.889 20.788 C 230.121 21.298,229.388 21.714,229.260 21.714 C 229.133 21.714,228.925 21.818,228.798 21.945 C 228.672 22.071,228.062 22.436,227.443 22.754 C 224.324 24.360,222.303 25.546,221.594 26.186 C 221.475 26.293,221.004 26.678,220.546 27.041 C 218.113 28.970,215.753 31.857,214.157 34.857 C 213.563 35.972,213.473 36.121,212.141 38.190 C 211.429 39.296,210.067 41.172,209.373 42.003 C 209.218 42.189,208.567 43.228,207.671 44.722 C 207.438 45.110,207.157 45.634,207.046 45.885 C 205.706 48.930,202.390 50.819,200.627 49.542 C 199.129 48.457,198.699 47.146,199.440 45.930 L 199.832 45.288 200.278 45.707 C 201.099 46.478,201.603 46.186,201.719 44.871 C 201.777 44.218,201.919 43.709,202.057 43.664 C 203.111 43.312,204.094 42.345,204.230 41.524 C 204.416 40.404,204.914 40.000,206.103 40.000 C 207.438 40.000,207.697 39.670,207.555 38.148 C 207.394 36.430,207.599 36.000,208.579 36.000 C 210.257 36.000,210.420 35.541,209.429 33.606 C 208.458 31.710,208.626 31.143,210.356 30.486 C 210.632 30.381,210.856 30.186,210.854 30.052 C 210.847 29.455,210.477 29.271,209.045 29.154 C 207.914 29.062,207.518 28.951,207.313 28.671 C 206.953 28.179,206.934 28.224,208.004 27.092 C 210.033 24.948,208.706 24.201,203.914 24.790 C 201.023 25.145,200.905 24.844,203.325 23.292 C 205.676 21.783,206.053 21.506,206.844 20.707 C 207.639 19.905,207.845 19.175,207.333 18.979 C 206.809 18.777,207.038 18.348,208.221 17.312 C 208.867 16.748,209.531 16.151,209.698 15.987 C 209.864 15.822,210.643 15.146,211.429 14.485 C 214.246 12.112,216.427 9.578,217.340 7.619 C 218.306 5.545,217.487 3.795,216.198 5.179 M204.667 20.000 C 204.602 20.105,204.383 20.190,204.179 20.190 C 203.976 20.190,203.810 20.105,203.810 20.000 C 203.810 19.895,204.029 19.810,204.297 19.810 C 204.573 19.810,204.733 19.892,204.667 20.000 M203.619 20.560 C 203.619 20.817,203.272 20.996,203.045 20.855 C 202.938 20.789,202.900 20.656,202.961 20.558 C 203.104 20.327,203.619 20.328,203.619 20.560 M234.381 28.190 C 234.316 28.295,234.145 28.381,234.000 28.381 C 233.855 28.381,233.684 28.295,233.619 28.190 C 233.552 28.082,233.716 28.000,234.000 28.000 C 234.284 28.000,234.448 28.082,234.381 28.190 M232.333 28.501 C 232.845 28.638,232.893 28.924,232.429 29.066 C 232.245 29.122,231.838 29.287,231.524 29.434 C 230.752 29.796,229.394 30.273,228.517 30.492 C 228.121 30.591,227.650 30.751,227.470 30.849 C 227.290 30.947,225.771 31.681,224.095 32.481 C 222.419 33.280,220.919 34.014,220.762 34.111 C 220.605 34.207,220.262 34.372,220.000 34.477 C 219.738 34.581,219.375 34.753,219.193 34.857 C 219.011 34.962,218.711 35.048,218.526 35.048 C 217.766 35.048,221.148 32.578,223.048 31.747 C 223.205 31.678,223.462 31.550,223.619 31.462 C 224.873 30.761,227.628 29.714,228.217 29.714 C 228.329 29.714,228.734 29.467,229.115 29.165 C 230.037 28.436,231.198 28.197,232.333 28.501 M247.295 34.952 C 247.275 35.057,246.997 35.196,246.678 35.261 C 246.359 35.327,245.977 35.480,245.830 35.602 C 245.683 35.724,244.920 35.896,244.134 35.984 C 243.348 36.072,242.626 36.193,242.528 36.253 C 241.991 36.585,237.862 37.366,237.668 37.173 C 237.164 36.669,239.390 35.336,240.510 35.471 C 241.262 35.562,244.230 35.184,245.238 34.869 C 245.960 34.644,247.346 34.700,247.295 34.952 M285.636 39.443 C 285.365 39.766,285.143 40.130,285.143 40.253 C 285.142 40.652,283.889 41.897,283.270 42.113 C 282.422 42.408,282.493 42.943,283.531 44.095 C 284.003 44.619,284.572 45.425,284.797 45.886 C 285.691 47.724,287.238 48.746,287.238 47.499 C 287.238 46.933,287.848 45.854,288.571 45.143 C 289.933 43.802,290.265 42.482,289.357 42.012 C 289.055 41.856,288.484 41.240,288.088 40.644 C 286.777 38.668,286.431 38.499,285.636 39.443 M221.861 39.655 C 221.743 40.008,221.333 40.067,221.333 39.730 C 221.333 39.564,221.469 39.429,221.635 39.429 C 221.801 39.429,221.903 39.530,221.861 39.655 M221.143 40.286 C 221.143 40.443,221.069 40.571,220.978 40.571 C 220.407 40.571,217.474 43.264,216.779 44.425 C 215.937 45.834,213.382 47.182,213.074 46.381 C 212.766 45.579,214.827 43.063,216.042 42.758 C 216.310 42.691,217.017 42.123,217.614 41.496 C 218.832 40.217,219.176 40.029,220.333 40.012 C 220.931 40.003,221.143 40.075,221.143 40.286 M247.190 42.423 C 247.273 42.677,246.422 43.619,246.111 43.619 C 245.802 43.619,245.492 42.877,245.625 42.458 C 245.763 42.022,247.049 41.993,247.190 42.423 M239.238 43.162 C 239.238 43.592,238.771 44.000,238.279 44.000 C 237.550 44.000,237.446 43.137,238.143 42.874 C 238.534 42.726,239.238 42.911,239.238 43.162 M227.884 43.920 C 227.948 44.086,228.000 44.456,228.000 44.742 C 228.000 45.517,228.916 46.111,230.305 46.237 C 232.101 46.400,231.604 46.667,229.506 46.667 C 227.538 46.667,225.713 46.300,225.128 45.787 C 224.962 45.642,224.620 45.522,224.366 45.521 C 223.887 45.518,223.277 45.228,223.434 45.078 C 223.483 45.031,223.867 44.841,224.286 44.657 C 226.647 43.617,227.686 43.404,227.884 43.920 M214.875 49.681 C 214.761 49.895,214.474 50.125,214.238 50.193 C 214.002 50.261,213.529 50.443,213.186 50.598 C 212.486 50.914,211.211 50.879,211.100 50.541 C 211.060 50.420,211.295 50.262,211.622 50.190 C 211.949 50.118,212.446 49.939,212.727 49.793 C 213.008 49.646,213.415 49.526,213.630 49.525 C 213.846 49.524,214.189 49.401,214.392 49.251 C 214.858 48.907,215.150 49.167,214.875 49.681 M300.862 53.408 C 302.401 55.009,303.323 59.685,302.563 62.041 C 302.284 62.909,300.245 65.143,299.733 65.143 C 299.635 65.143,299.418 65.264,299.253 65.412 C 298.763 65.851,296.254 67.048,295.825 67.048 C 295.134 67.048,295.376 66.706,297.619 64.512 C 300.007 62.177,300.319 61.557,299.333 61.108 C 298.633 60.789,298.746 60.229,299.730 59.143 C 301.724 56.940,301.900 55.927,300.553 54.415 C 299.299 53.008,299.584 52.079,300.862 53.408 M209.524 53.587 C 211.220 54.028,209.572 54.557,205.788 54.788 C 203.798 54.909,202.844 54.633,204.328 54.366 C 204.724 54.294,205.152 54.153,205.280 54.052 C 206.075 53.422,208.055 53.205,209.524 53.587 M292.990 55.048 C 293.364 55.815,293.482 59.695,293.138 59.908 C 292.934 60.034,291.810 58.955,291.810 58.633 C 291.810 58.532,291.623 58.477,291.395 58.511 C 290.739 58.607,290.104 60.025,289.964 61.708 C 289.826 63.370,289.315 65.048,288.947 65.048 C 288.158 65.048,288.151 59.787,288.939 58.764 C 289.021 58.658,289.181 58.292,289.296 57.952 C 289.510 57.317,290.653 55.488,291.327 54.706 C 291.877 54.066,292.582 54.211,292.990 55.048 M224.476 55.965 C 225.524 56.281,226.852 56.803,227.429 57.124 C 228.025 57.456,228.764 57.710,229.143 57.713 C 230.031 57.721,230.687 57.909,230.558 58.117 C 230.501 58.210,230.293 58.286,230.097 58.286 C 229.902 58.286,228.835 58.586,227.727 58.952 C 224.290 60.090,222.653 59.764,222.466 57.904 C 222.358 56.830,221.937 55.619,221.673 55.619 C 221.591 55.619,221.524 55.524,221.524 55.407 C 221.524 55.136,222.078 55.241,224.476 55.965 M296.762 62.095 C 296.762 62.200,296.633 62.286,296.476 62.286 C 296.319 62.286,296.190 62.200,296.190 62.095 C 296.190 61.990,296.319 61.905,296.476 61.905 C 296.633 61.905,296.762 61.990,296.762 62.095 M220.762 64.377 C 221.338 64.481,223.181 64.697,224.857 64.856 C 228.158 65.170,231.065 65.736,232.307 66.307 C 232.737 66.505,233.177 66.667,233.283 66.667 C 233.390 66.667,234.067 67.202,234.787 67.857 C 235.507 68.512,236.353 69.220,236.667 69.431 C 239.265 71.174,249.524 72.021,249.524 70.492 C 249.524 70.025,249.023 69.911,246.952 69.905 C 245.684 69.901,244.792 69.771,243.524 69.405 C 242.581 69.132,241.338 68.800,240.762 68.666 C 240.186 68.533,239.457 68.286,239.143 68.118 C 238.829 67.949,238.486 67.809,238.381 67.806 C 237.936 67.791,236.933 66.749,237.055 66.430 C 237.196 66.064,239.013 65.143,239.595 65.143 C 239.804 65.143,240.216 65.050,240.511 64.937 C 243.355 63.842,250.510 63.809,257.799 64.857 L 259.693 65.129 261.082 66.517 C 264.132 69.564,266.460 73.250,266.035 74.358 C 265.887 74.744,231.260 74.824,228.857 74.443 C 228.124 74.327,226.215 74.210,224.615 74.183 C 221.176 74.126,220.477 74.012,221.037 73.604 C 221.240 73.455,221.583 73.331,221.798 73.327 C 223.630 73.299,223.520 71.441,221.619 70.298 C 220.802 69.807,220.018 68.998,220.007 68.634 C 219.995 68.237,219.031 67.244,218.166 66.738 C 216.788 65.930,216.671 65.141,217.817 64.364 C 218.403 63.965,218.497 63.966,220.762 64.377 M288.952 77.095 C 288.952 77.740,288.399 80.563,288.200 80.934 C 288.090 81.140,287.997 81.464,287.994 81.654 C 287.990 81.844,287.821 82.343,287.619 82.762 C 287.417 83.181,287.248 83.669,287.245 83.846 C 287.241 84.023,287.158 84.218,287.060 84.278 C 286.731 84.481,285.905 86.446,285.905 87.025 C 285.905 87.673,285.571 87.989,285.301 87.596 C 285.039 87.214,285.250 84.764,285.602 84.095 C 285.767 83.781,285.903 83.406,285.904 83.263 C 285.904 83.120,286.205 82.508,286.571 81.905 C 286.938 81.301,287.238 80.561,287.239 80.261 C 287.240 79.542,288.088 77.134,288.413 76.929 C 288.801 76.683,288.952 76.729,288.952 77.095 M117.714 79.838 C 117.243 79.936,116.586 79.976,116.255 79.927 C 115.611 79.833,114.299 81.096,113.776 82.314 C 113.508 82.936,114.601 83.680,116.659 84.276 C 117.283 84.457,118.201 84.812,118.700 85.064 C 119.198 85.317,119.716 85.525,119.851 85.526 C 119.985 85.528,120.602 85.786,121.222 86.100 C 126.895 88.977,130.465 94.215,130.888 100.286 C 131.626 110.860,131.195 201.242,130.386 205.561 C 129.452 210.549,126.408 217.352,123.883 220.095 C 123.497 220.514,122.299 221.800,121.221 222.952 C 118.225 226.154,118.098 226.309,117.582 227.396 C 116.367 229.960,118.145 231.128,120.937 229.599 C 123.250 228.333,125.501 226.169,131.524 219.424 C 134.154 216.478,134.054 216.588,135.411 215.164 C 136.644 213.871,136.455 213.827,137.958 215.754 C 138.629 216.614,140.270 218.456,141.606 219.849 C 142.941 221.242,144.190 222.681,144.382 223.048 C 144.573 223.414,145.123 224.172,145.604 224.730 C 146.084 225.289,146.584 225.891,146.715 226.068 C 148.386 228.329,151.200 227.858,152.852 225.040 C 153.111 224.597,153.454 224.185,153.614 224.124 C 154.667 223.719,153.034 221.803,151.330 221.444 C 150.018 221.167,148.875 219.683,146.844 215.619 C 145.350 212.630,145.466 212.882,144.864 211.320 C 142.869 206.141,143.092 209.463,142.863 181.524 C 142.646 155.077,142.628 124.727,142.828 123.063 C 143.067 121.080,143.314 121.480,147.767 131.048 C 148.182 131.938,148.757 133.181,149.045 133.810 C 149.334 134.438,149.912 135.681,150.331 136.571 C 150.750 137.462,151.247 138.533,151.435 138.952 C 151.623 139.371,152.084 140.380,152.460 141.195 C 152.836 142.009,153.143 142.732,153.143 142.801 C 153.143 142.871,153.320 143.319,153.536 143.797 C 153.752 144.275,154.044 144.924,154.186 145.238 C 154.980 147.001,156.100 149.462,157.047 151.524 C 157.192 151.838,157.621 152.781,158.001 153.619 C 159.480 156.883,160.231 158.292,160.758 158.789 C 161.164 159.173,161.341 159.558,161.437 160.273 C 161.508 160.804,161.672 161.452,161.802 161.714 C 162.600 163.330,163.578 165.631,164.474 168.000 C 164.652 168.471,164.962 169.224,165.161 169.672 C 165.361 170.120,165.524 170.591,165.525 170.719 C 165.526 170.848,165.655 171.199,165.812 171.500 C 165.969 171.801,166.153 172.530,166.221 173.119 C 166.396 174.638,168.086 179.443,168.593 179.860 C 169.914 180.947,170.509 180.415,171.222 177.508 C 171.516 176.312,171.989 174.690,172.274 173.905 C 172.558 173.119,172.859 172.219,172.941 171.905 C 173.024 171.590,173.226 171.033,173.390 170.667 C 173.554 170.300,173.999 169.186,174.379 168.190 C 174.759 167.195,175.182 166.124,175.318 165.810 C 175.455 165.495,175.760 164.767,175.997 164.190 C 176.233 163.614,176.588 162.791,176.785 162.360 C 176.982 161.930,177.143 161.487,177.143 161.376 C 177.143 161.265,177.261 160.931,177.405 160.634 C 177.773 159.879,178.386 158.534,178.824 157.524 C 179.028 157.052,179.462 156.088,179.788 155.380 C 180.114 154.673,180.381 154.038,180.381 153.969 C 180.381 153.900,180.856 152.851,181.437 151.636 C 182.018 150.422,182.655 149.086,182.853 148.667 C 183.050 148.248,184.579 145.119,186.250 141.714 C 191.208 131.612,192.762 128.200,192.762 127.412 C 192.762 127.296,192.880 126.974,193.025 126.696 C 193.170 126.418,193.483 125.719,193.722 125.143 C 193.960 124.567,194.436 123.495,194.779 122.762 C 195.122 122.029,195.719 120.743,196.106 119.905 C 198.977 113.683,199.131 113.538,199.304 116.921 C 199.494 120.654,199.425 130.258,199.198 131.429 C 199.066 132.116,198.937 143.007,198.823 163.143 C 198.630 197.192,198.631 197.155,198.294 207.333 C 198.033 215.241,197.781 217.293,196.880 218.857 C 196.608 219.329,196.330 219.843,196.262 220.000 C 194.561 223.936,189.647 227.738,184.667 228.972 C 182.172 229.590,181.482 230.656,183.429 230.885 C 185.614 231.141,192.281 230.532,193.371 229.976 C 193.654 229.832,194.030 229.714,194.206 229.714 C 194.547 229.714,197.499 228.285,198.762 227.508 C 199.181 227.250,199.652 226.982,199.810 226.913 C 199.967 226.843,200.524 226.484,201.048 226.116 C 204.208 223.894,204.357 223.855,205.856 224.843 C 206.401 225.201,207.020 225.550,207.233 225.617 C 207.445 225.685,207.619 225.812,207.619 225.899 C 207.619 225.986,207.855 226.153,208.143 226.270 C 208.431 226.387,209.267 226.816,210.000 227.225 C 215.153 230.094,217.340 230.689,218.491 229.538 C 219.120 228.909,219.182 228.384,218.754 227.309 C 218.422 226.475,217.707 225.096,217.531 224.952 C 217.468 224.900,217.076 224.343,216.660 223.714 C 214.313 220.164,213.046 216.993,212.550 213.429 C 212.448 212.695,212.271 211.752,212.158 211.333 C 211.631 209.391,211.484 93.737,212.003 89.524 C 212.099 88.738,212.235 87.688,212.304 87.190 L 212.430 86.286 205.066 86.286 L 197.701 86.286 197.337 87.135 C 197.136 87.602,196.914 88.309,196.843 88.707 C 196.771 89.104,196.609 89.643,196.483 89.905 C 196.356 90.167,196.080 90.767,195.869 91.238 C 195.658 91.710,195.294 92.524,195.059 93.048 C 194.825 93.571,194.521 94.257,194.385 94.571 C 194.248 94.886,193.956 95.538,193.735 96.021 C 193.514 96.504,193.333 97.023,193.333 97.175 C 193.333 97.327,193.207 97.617,193.054 97.821 C 192.900 98.024,192.771 98.306,192.768 98.447 C 192.765 98.589,192.622 99.017,192.451 99.400 C 192.280 99.782,191.969 100.481,191.760 100.952 C 191.551 101.424,190.919 102.764,190.357 103.930 C 189.794 105.097,189.333 106.299,189.333 106.601 C 189.333 106.917,189.037 107.595,188.637 108.195 C 187.616 109.724,186.245 112.349,183.517 118.000 C 181.470 122.239,180.387 124.546,178.934 127.762 C 178.661 128.364,178.069 129.629,177.616 130.571 C 176.874 132.119,176.386 133.176,175.201 135.810 C 174.792 136.718,173.919 138.625,173.315 139.926 C 173.116 140.356,172.952 140.812,172.952 140.938 C 172.952 141.065,172.850 141.355,172.725 141.584 C 172.386 142.203,171.621 144.428,171.620 144.798 C 171.617 145.768,170.285 144.808,169.588 143.333 C 169.440 143.019,168.810 141.819,168.189 140.667 C 167.004 138.469,159.378 123.195,157.585 119.429 C 157.011 118.224,156.463 117.110,156.366 116.952 C 156.269 116.795,156.114 116.495,156.022 116.286 C 155.930 116.076,155.595 115.348,155.278 114.667 C 153.759 111.402,153.333 110.459,153.333 110.350 C 153.333 110.285,153.153 109.837,152.932 109.354 C 152.711 108.871,152.418 108.219,152.281 107.905 C 152.144 107.590,151.735 106.690,151.372 105.905 C 151.009 105.119,150.539 104.090,150.327 103.619 C 150.116 103.148,149.583 101.990,149.143 101.048 C 148.703 100.105,148.047 98.690,147.685 97.905 C 147.323 97.119,146.945 96.348,146.846 96.190 C 146.747 96.033,146.589 95.730,146.496 95.516 C 146.402 95.302,145.888 94.202,145.353 93.071 C 144.818 91.940,144.381 90.964,144.381 90.901 C 144.381 90.838,144.201 90.396,143.982 89.917 C 143.762 89.439,143.471 88.790,143.335 88.476 C 143.198 88.162,142.894 87.459,142.658 86.913 C 142.097 85.619,140.980 84.396,140.166 84.185 C 139.813 84.094,138.752 83.763,137.810 83.450 C 134.672 82.410,133.499 82.119,128.952 81.248 C 128.167 81.097,126.538 80.918,125.333 80.849 C 124.129 80.780,122.602 80.604,121.941 80.457 C 121.279 80.311,120.503 80.190,120.215 80.190 C 119.927 80.190,119.525 80.065,119.322 79.911 C 118.905 79.595,118.891 79.595,117.714 79.838 M258.952 84.384 C 271.911 84.775,273.725 85.020,275.665 86.642 C 277.120 87.859,276.863 90.733,275.121 92.719 C 274.635 93.273,273.524 95.653,273.524 96.140 C 273.524 96.275,273.443 96.535,273.345 96.717 C 273.247 96.899,272.941 97.562,272.666 98.190 C 272.391 98.819,272.050 99.590,271.907 99.905 C 271.144 101.591,270.220 103.614,269.905 104.286 C 269.709 104.705,269.500 105.176,269.442 105.333 C 269.384 105.490,269.254 105.748,269.155 105.905 C 269.055 106.062,268.192 107.819,267.237 109.810 C 266.282 111.800,265.279 113.883,265.008 114.439 C 264.737 114.995,264.141 115.866,263.684 116.374 C 262.932 117.211,262.856 117.384,262.887 118.194 C 262.918 119.018,262.861 119.139,262.182 119.709 C 261.413 120.356,261.125 122.154,261.700 122.729 C 262.047 123.075,261.953 123.679,261.571 123.557 C 259.691 122.959,258.186 122.296,255.905 121.062 C 254.125 120.100,251.238 117.700,251.238 117.183 C 251.238 116.851,252.481 116.190,253.105 116.190 C 253.427 116.190,254.274 116.070,254.988 115.923 C 255.702 115.776,256.830 115.595,257.495 115.521 C 260.402 115.198,261.646 114.309,260.989 113.027 C 260.635 112.336,259.661 111.429,259.274 111.429 C 259.180 111.429,258.876 111.218,258.599 110.961 C 257.609 110.043,252.681 109.705,250.510 110.406 C 248.435 111.076,247.172 112.774,247.294 114.730 C 247.589 119.493,249.733 122.078,256.080 125.325 C 258.877 126.757,259.140 126.958,259.610 128.035 C 260.535 130.153,259.668 132.197,258.461 130.743 C 257.195 129.218,255.044 131.813,252.998 137.333 C 252.785 137.910,252.302 139.154,251.924 140.099 C 251.547 141.045,251.238 141.932,251.238 142.071 C 251.238 142.210,251.115 142.593,250.965 142.924 C 250.814 143.254,250.606 143.824,250.503 144.190 C 250.399 144.557,250.060 145.586,249.749 146.476 C 249.439 147.367,248.994 148.738,248.762 149.524 C 248.529 150.310,248.220 151.222,248.074 151.553 C 247.929 151.883,247.810 152.267,247.810 152.406 C 247.810 152.545,247.627 153.132,247.404 153.711 C 247.182 154.289,246.887 155.062,246.751 155.429 C 246.062 157.272,245.506 158.646,245.171 159.333 C 244.245 161.232,243.861 162.268,243.736 163.211 C 243.532 164.746,241.748 168.358,241.186 168.374 C 240.540 168.393,240.514 167.567,240.358 141.714 C 240.273 127.624,240.094 111.852,239.959 106.667 C 239.568 91.618,239.715 85.613,240.504 84.336 C 240.631 84.131,251.475 84.159,258.952 84.384 M279.073 98.429 C 279.130 99.167,279.009 100.519,278.823 101.238 C 278.714 101.657,278.553 102.513,278.464 103.139 C 278.266 104.532,277.171 105.387,276.654 104.551 C 276.504 104.308,277.092 102.182,277.464 101.624 C 277.602 101.418,277.714 101.129,277.714 100.982 C 277.714 100.041,279.010 97.606,279.073 98.429 M275.066 109.571 C 275.194 111.224,274.004 114.642,272.990 115.535 C 272.082 116.335,271.435 115.927,271.988 114.902 C 272.086 114.720,272.343 114.164,272.559 113.667 C 274.083 110.158,274.511 109.333,274.809 109.333 C 274.940 109.333,275.056 109.440,275.066 109.571 M264.198 129.560 C 264.508 129.789,264.762 130.046,264.762 130.131 C 264.762 130.359,264.043 130.319,263.898 130.083 C 263.829 129.972,263.567 129.803,263.315 129.707 C 263.063 129.612,262.857 129.445,262.857 129.338 C 262.857 129.001,263.611 129.125,264.198 129.560 M258.417 137.667 C 258.369 137.850,258.330 137.700,258.330 137.333 C 258.330 136.967,258.369 136.817,258.417 137.000 C 258.465 137.183,258.465 137.483,258.417 137.667 M260.190 140.272 C 260.190 140.690,259.251 141.333,258.641 141.333 C 257.953 141.333,257.944 140.995,258.619 140.443 C 259.215 139.955,260.190 139.849,260.190 140.272 M263.965 141.958 C 264.135 143.429,261.080 145.359,259.922 144.512 C 259.608 144.283,259.679 144.176,260.773 143.226 C 262.979 141.312,263.851 140.965,263.965 141.958 M257.951 145.315 C 257.924 145.558,257.692 145.922,257.437 146.123 C 257.181 146.324,256.696 146.915,256.358 147.435 C 255.529 148.714,255.019 148.494,255.343 146.996 C 255.679 145.444,258.111 143.877,257.951 145.315 M260.795 147.484 C 260.761 147.776,260.461 148.509,260.128 149.113 C 259.280 150.654,258.761 151.738,258.289 152.952 C 257.827 154.142,257.667 154.505,256.610 156.762 C 256.193 157.652,255.576 158.981,255.240 159.714 C 254.247 161.877,250.881 168.622,250.437 169.339 C 250.212 169.703,249.822 170.386,249.569 170.857 C 248.830 172.237,248.000 172.986,248.000 172.274 C 248.000 171.850,248.551 170.093,248.872 169.494 C 249.021 169.216,249.143 168.898,249.143 168.787 C 249.143 168.677,249.429 167.961,249.778 167.198 C 250.128 166.434,250.613 165.338,250.856 164.762 C 251.619 162.959,252.024 162.038,252.575 160.857 C 252.869 160.229,253.465 158.857,253.901 157.810 C 254.337 156.762,254.804 155.648,254.939 155.333 C 255.075 155.019,255.378 154.290,255.612 153.714 C 257.334 149.487,259.223 146.789,260.381 146.905 C 260.781 146.945,260.847 147.037,260.795 147.484 M247.048 175.054 C 247.048 175.266,246.919 175.490,246.762 175.550 C 246.605 175.610,246.476 175.869,246.476 176.125 C 246.476 176.382,246.309 176.908,246.105 177.296 C 245.900 177.683,245.689 178.150,245.634 178.333 C 245.580 178.517,245.447 178.667,245.339 178.667 C 245.034 178.667,245.108 177.409,245.429 177.143 C 245.586 177.012,245.714 176.705,245.714 176.460 C 245.714 176.215,245.872 175.862,246.065 175.674 C 246.257 175.487,246.469 175.183,246.535 175.000 C 246.699 174.543,247.048 174.579,247.048 175.054 M235.531 203.190 C 235.597 203.583,235.773 204.523,235.921 205.278 C 236.556 208.512,236.069 210.159,233.950 211.946 C 232.202 213.421,231.637 213.276,232.308 211.524 C 232.603 210.754,232.952 209.457,233.333 207.714 C 233.447 207.190,233.633 206.376,233.746 205.905 C 233.858 205.433,234.061 204.544,234.195 203.927 C 234.541 202.340,235.317 201.913,235.531 203.190 M232.116 202.937 C 232.173 203.086,232.120 203.396,231.997 203.625 C 231.703 204.174,231.365 203.842,231.534 203.170 C 231.672 202.621,231.952 202.509,232.116 202.937 M231.393 204.985 C 231.315 205.773,230.857 205.949,230.857 205.190 C 230.857 204.885,230.914 204.578,230.984 204.508 C 231.275 204.217,231.449 204.419,231.393 204.985 M228.861 212.429 C 229.031 213.111,228.695 214.370,228.325 214.442 C 228.059 214.493,228.000 214.355,228.003 213.681 C 228.006 212.586,228.178 212.000,228.495 212.000 C 228.638 212.000,228.803 212.193,228.861 212.429 M229.333 217.143 C 229.333 217.352,229.248 217.524,229.143 217.524 C 229.038 217.524,228.952 217.352,228.952 217.143 C 228.952 216.933,229.038 216.762,229.143 216.762 C 229.248 216.762,229.333 216.933,229.333 217.143"/>
  </svg>