<svg id="svg" version="1.1" xmlns="http://www.w3.org/2000/svg" xmlns:xlink="http://www.w3.org/1999/xlink" width="2000" height="250" viewBox="0, 0, 400,50.77574047954866"><g id="svgg"><path id="path0" d="M0.000 19.135 C 0.000 19.514,-0.117 19.493,3.917 19.821 C 5.108 19.918,6.496 20.067,7.000 20.153 C 7.504 20.239,8.708 20.314,9.675 20.321 C 10.748 20.329,11.507 20.407,11.622 20.522 C 11.738 20.638,12.732 20.738,14.197 20.781 C 15.510 20.819,16.958 20.953,17.417 21.078 C 17.875 21.204,19.344 21.347,20.682 21.397 C 22.019 21.447,23.331 21.573,23.598 21.677 C 23.865 21.780,25.321 21.925,26.833 21.999 C 28.346 22.073,29.921 22.212,30.333 22.309 C 30.746 22.406,32.009 22.489,33.141 22.493 C 34.493 22.498,35.506 22.589,36.094 22.760 C 36.597 22.906,38.178 23.083,39.703 23.164 C 41.195 23.242,42.792 23.383,43.250 23.477 C 43.708 23.570,45.007 23.651,46.136 23.657 C 47.373 23.663,48.333 23.745,48.553 23.863 C 48.763 23.976,50.146 24.109,51.833 24.177 C 53.438 24.242,54.975 24.384,55.250 24.493 C 55.525 24.602,57.100 24.754,58.750 24.832 C 60.400 24.909,62.125 25.049,62.583 25.143 C 63.042 25.237,64.453 25.318,65.719 25.323 C 67.103 25.329,68.163 25.409,68.377 25.523 C 68.572 25.628,70.085 25.779,71.741 25.859 C 73.396 25.940,75.125 26.085,75.583 26.182 C 76.042 26.279,77.729 26.423,79.333 26.502 C 81.972 26.631,83.506 26.810,84.299 27.079 C 84.870 27.272,85.223 28.022,85.324 29.256 C 85.431 30.571,85.665 31.000,86.275 31.000 C 86.841 31.000,87.054 30.341,86.924 28.988 C 86.730 26.967,87.004 26.763,89.281 27.236 C 89.906 27.365,91.485 27.525,92.792 27.590 C 94.098 27.656,95.167 27.749,95.167 27.797 C 95.167 27.928,94.330 29.023,93.866 29.500 C 92.963 30.426,93.112 31.000,94.255 31.000 C 94.936 31.000,95.010 30.949,95.818 29.920 C 97.130 28.251,97.383 28.167,101.066 28.167 C 102.850 28.167,104.342 28.242,104.614 28.345 C 104.872 28.443,106.733 28.589,108.750 28.669 C 110.767 28.749,112.792 28.889,113.250 28.980 C 113.708 29.071,114.908 29.194,115.915 29.253 C 117.730 29.360,117.755 29.367,118.748 30.066 C 119.900 30.878,121.064 31.500,121.428 31.500 C 122.127 31.500,123.483 32.472,123.495 32.982 C 123.506 33.455,124.261 34.717,124.636 34.888 C 125.593 35.324,125.433 34.235,124.150 31.583 C 123.297 29.819,123.282 29.833,125.958 29.837 C 127.219 29.839,128.550 29.917,128.917 30.009 C 129.283 30.100,131.421 30.288,133.667 30.424 C 135.912 30.561,138.387 30.741,139.167 30.823 C 139.946 30.906,141.671 30.984,143.000 30.996 C 146.890 31.032,147.899 31.719,147.935 34.358 C 147.962 36.388,148.774 37.375,149.765 36.585 C 150.228 36.216,150.237 36.174,150.245 34.479 C 150.250 33.225,150.330 32.578,150.534 32.125 L 150.816 31.500 152.227 31.500 C 153.003 31.500,154.488 31.614,155.527 31.752 C 156.566 31.891,159.179 32.079,161.333 32.170 C 163.487 32.261,165.925 32.404,166.750 32.487 C 167.575 32.570,169.638 32.644,171.334 32.652 C 173.031 32.660,174.681 32.745,175.001 32.840 C 175.321 32.935,177.799 33.082,180.507 33.166 C 183.215 33.251,185.953 33.400,186.590 33.497 C 187.228 33.595,189.850 33.749,192.417 33.839 C 194.983 33.929,197.946 34.071,199.000 34.154 C 200.054 34.237,202.492 34.313,204.417 34.323 C 208.436 34.343,208.258 34.284,209.205 35.928 C 210.111 37.502,210.226 38.002,210.099 39.840 C 209.979 41.579,210.016 41.667,210.876 41.667 C 211.067 41.667,211.359 41.789,211.524 41.939 C 212.134 42.490,214.025 41.151,213.629 40.449 C 212.771 38.930,212.431 35.142,213.134 34.932 C 213.504 34.822,223.102 35.127,225.250 35.318 C 226.167 35.400,229.410 35.474,232.458 35.483 C 239.537 35.505,239.716 35.628,237.496 38.943 C 236.786 40.003,236.760 40.232,237.254 41.074 L 237.693 41.825 238.657 41.338 C 239.676 40.824,239.869 40.511,240.352 38.587 C 240.589 37.644,241.207 36.914,242.183 36.424 L 243.027 36.000 248.472 36.009 C 251.467 36.014,255.229 36.087,256.833 36.172 C 258.438 36.256,261.587 36.370,263.833 36.423 C 268.940 36.545,268.546 36.450,269.197 37.711 C 269.717 38.717,269.735 38.817,269.742 40.850 L 269.750 42.950 270.333 43.628 C 271.065 44.478,271.123 44.479,271.922 43.661 L 272.578 42.989 272.628 41.119 C 272.680 39.177,273.115 37.222,273.582 36.835 C 273.759 36.688,277.224 36.667,287.700 36.749 C 313.379 36.952,347.382 36.725,350.417 36.331 C 351.150 36.236,355.238 36.090,359.500 36.008 C 363.762 35.926,367.287 35.848,367.333 35.834 C 368.426 35.512,355.594 35.388,351.750 35.684 C 350.650 35.768,343.563 35.906,336.000 35.991 C 328.438 36.075,319.512 36.232,316.167 36.339 C 312.821 36.446,308.696 36.497,307.000 36.453 C 305.304 36.409,297.252 36.296,289.105 36.200 C 280.959 36.105,274.233 35.965,274.157 35.889 C 274.082 35.812,274.164 35.337,274.338 34.833 C 274.914 33.170,274.775 31.537,273.832 28.917 C 273.667 28.458,273.408 27.652,273.258 27.125 C 272.514 24.530,269.551 24.795,269.063 27.500 C 269.005 27.821,268.714 28.608,268.418 29.250 C 267.479 31.281,267.408 34.304,268.266 35.693 C 268.499 36.069,266.859 36.068,258.167 35.683 C 256.196 35.595,252.333 35.517,249.583 35.509 C 243.748 35.492,243.969 35.551,244.838 34.244 C 245.202 33.697,245.499 33.134,245.499 32.992 C 245.500 32.850,245.575 32.659,245.666 32.568 C 245.982 32.251,246.492 29.910,246.497 28.750 C 246.503 27.351,246.698 26.579,247.252 25.762 C 247.714 25.082,247.769 24.833,247.456 24.833 C 247.340 24.833,246.872 24.583,246.414 24.277 C 244.694 23.125,242.953 23.716,242.475 25.614 C 242.353 26.100,241.998 26.637,241.330 27.351 C 240.457 28.282,239.171 30.475,239.164 31.042 C 239.163 31.156,239.054 31.550,238.921 31.917 C 238.789 32.283,238.678 33.008,238.674 33.528 C 238.662 35.131,239.376 34.994,231.527 34.899 C 227.461 34.849,224.272 34.740,223.833 34.635 C 223.421 34.536,220.908 34.409,218.250 34.353 L 213.417 34.250 213.360 33.851 C 213.329 33.632,213.429 33.175,213.582 32.836 C 214.175 31.522,213.729 28.989,212.551 26.971 C 212.248 26.452,211.859 25.702,211.687 25.305 C 211.003 23.725,210.151 23.328,208.857 23.988 C 207.879 24.487,207.760 24.727,207.649 26.437 C 207.594 27.294,207.455 28.104,207.339 28.244 C 206.895 28.778,206.926 30.523,207.405 32.063 C 207.652 32.853,207.800 33.586,207.735 33.692 C 207.593 33.921,199.253 33.755,197.500 33.488 C 196.904 33.397,194.317 33.251,191.750 33.164 C 189.183 33.077,186.408 32.936,185.583 32.851 C 184.758 32.766,182.713 32.689,181.038 32.681 C 179.363 32.673,177.075 32.555,175.954 32.419 C 174.834 32.282,172.042 32.094,169.750 32.000 C 167.458 31.907,164.871 31.763,164.000 31.681 C 163.129 31.599,161.172 31.524,159.650 31.516 C 158.128 31.507,156.666 31.425,156.400 31.334 C 156.134 31.243,154.813 31.107,153.463 31.033 C 150.777 30.886,150.714 30.868,151.009 30.316 C 151.125 30.099,151.216 29.274,151.220 28.396 C 151.227 26.881,151.150 26.550,150.409 24.917 C 150.285 24.642,150.105 24.112,150.010 23.739 C 149.409 21.381,146.667 21.798,146.667 24.247 C 146.667 24.670,146.535 25.257,146.375 25.550 C 146.136 25.987,146.086 26.483,146.098 28.292 C 146.108 29.773,146.053 30.505,145.931 30.514 C 145.203 30.571,138.246 30.193,136.750 30.016 C 136.017 29.928,134.366 29.852,133.082 29.845 C 131.798 29.839,130.486 29.755,130.166 29.659 C 129.845 29.564,128.244 29.417,126.608 29.332 C 123.249 29.159,123.343 29.198,122.834 27.789 C 122.331 26.397,121.248 24.561,120.731 24.222 C 120.500 24.071,120.099 23.528,119.839 23.015 C 119.023 21.407,117.968 21.103,116.625 22.089 C 115.736 22.741,115.675 22.966,116.198 23.673 C 116.494 24.073,116.583 24.489,116.672 25.878 C 116.732 26.820,116.868 27.753,116.974 27.951 C 117.349 28.653,117.259 28.692,115.458 28.610 C 114.519 28.567,113.225 28.454,112.583 28.358 C 111.942 28.262,110.367 28.180,109.083 28.175 C 107.739 28.170,106.196 28.061,105.444 27.917 C 104.725 27.779,103.675 27.666,103.110 27.665 C 100.293 27.661,100.051 27.515,100.958 26.363 C 101.302 25.926,101.706 25.310,101.857 24.993 C 102.372 23.905,102.667 23.155,102.667 22.928 C 102.667 22.803,102.934 22.467,103.261 22.180 L 103.855 21.658 103.330 20.995 C 102.377 19.793,101.012 19.845,99.833 21.129 C 99.421 21.579,98.722 22.230,98.281 22.576 C 97.199 23.426,95.851 25.571,95.839 26.462 C 95.829 27.141,92.569 27.217,88.583 26.630 L 87.083 26.410 86.962 24.913 C 86.840 23.417,86.529 22.285,86.026 21.500 C 85.879 21.271,85.597 20.786,85.400 20.424 C 84.631 19.008,82.056 19.559,82.768 20.987 C 82.947 21.344,82.957 21.652,82.815 22.454 C 82.631 23.500,82.840 25.215,83.178 25.424 C 83.481 25.611,83.360 26.364,83.042 26.270 C 82.316 26.057,81.313 25.955,78.712 25.830 C 77.174 25.755,75.542 25.618,75.083 25.524 C 74.625 25.430,73.275 25.349,72.083 25.344 C 70.790 25.338,69.480 25.234,68.833 25.085 C 68.237 24.948,66.475 24.763,64.917 24.675 C 63.358 24.586,61.671 24.441,61.167 24.352 C 60.663 24.263,59.234 24.186,57.992 24.179 C 56.552 24.171,55.665 24.098,55.545 23.978 C 55.429 23.862,54.189 23.743,52.303 23.667 C 50.624 23.599,49.015 23.455,48.727 23.346 C 48.440 23.237,46.977 23.083,45.477 23.004 C 43.977 22.924,42.375 22.783,41.917 22.690 C 41.458 22.596,40.105 22.515,38.908 22.510 C 37.527 22.504,36.665 22.431,36.545 22.312 C 36.430 22.197,35.205 22.074,33.387 21.997 C 31.753 21.927,30.192 21.781,29.917 21.672 C 29.642 21.563,28.179 21.413,26.667 21.337 C 25.154 21.261,23.579 21.120,23.167 21.024 C 22.754 20.927,21.528 20.845,20.442 20.841 C 19.231 20.836,18.136 20.739,17.609 20.589 C 17.137 20.454,15.662 20.272,14.333 20.184 C 13.004 20.096,11.542 19.948,11.083 19.855 C 10.625 19.762,9.384 19.682,8.325 19.677 C 7.086 19.670,6.330 19.597,6.204 19.471 C 6.083 19.349,5.014 19.229,3.379 19.154 C 1.933 19.087,0.581 18.979,0.375 18.913 C 0.070 18.817,0.000 18.858,0.000 19.135 M396.833 33.333 C 396.146 33.397,395.396 33.499,395.167 33.560 C 394.938 33.620,393.175 33.741,391.250 33.829 C 389.325 33.916,387.488 34.066,387.168 34.161 C 386.848 34.256,385.423 34.339,384.001 34.345 C 382.580 34.352,380.817 34.427,380.083 34.513 C 379.350 34.599,376.912 34.741,374.667 34.830 C 369.419 35.036,367.614 35.178,368.167 35.343 C 368.755 35.518,375.964 35.504,377.667 35.324 C 378.446 35.242,380.696 35.098,382.667 35.005 C 384.637 34.911,387.037 34.725,388.000 34.592 C 388.962 34.458,391.037 34.314,392.611 34.271 C 394.185 34.228,395.623 34.112,395.808 34.013 C 395.994 33.914,397.011 33.833,398.072 33.833 C 399.889 33.833,400.000 33.814,400.000 33.500 C 400.000 33.128,399.383 33.096,396.833 33.333 " stroke="none" fill="#171717" fill-rule="evenodd"></path></g></svg>